<svg xmlns="http://www.w3.org/2000/svg" viewBox="0 0 52.42 52.42"><defs><style>.prefix__cls-3{fill-rule:evenodd;fill:#050505}</style></defs><path d="M6.73 0h39a6.74 6.74 0 016.73 6.72v39a6.75 6.75 0 01-6.73 6.73h-39a6.75 6.75 0 01-6.74-6.76v-39A6.74 6.74 0 016.72-.03z" fill-rule="evenodd" fill="#f73d0b"/><rect x="36.33" y="6.32" width="9.64" height="9.37" rx="1.86" fill="#050505"/><path d="M44.11 6.82a1.36 1.36 0 011.36 1.36v5.65a1.36 1.36 0 01-1.36 1.36h-5.92a1.36 1.36 0 01-1.36-1.36V8.18a1.36 1.36 0 011.36-1.36h5.92m0-1h-5.92a2.36 2.36 0 00-2.36 2.36v5.65a2.36 2.36 0 002.36 2.36h5.92a2.36 2.36 0 002.36-2.36V8.18a2.36 2.36 0 00-2.36-2.36z"/><path class="prefix__cls-3" d="M7.91 45.89a1.58 1.58 0 01-1.58-1.58V22.66h3.66a15.9 15.9 0 00-.51 4 16.56 16.56 0 0016.78 16.29 16.57 16.57 0 0016.8-16.29 15.91 15.91 0 00-.52-4h3.45v21.65a1.59 1.59 0 01-1.59 1.58z"/><path d="M45.5 23.16v21.15a1.09 1.09 0 01-1.09 1.08H7.91a1.08 1.08 0 01-1.08-1.08V23.16h2.52a15.83 15.83 0 00-.38 3.5 17.07 17.07 0 0017.29 16.79 17.07 17.07 0 0017.3-16.79 16.46 16.46 0 00-.38-3.5h2.32m1-1h-4.62a15.27 15.27 0 01.68 4.5 16.05 16.05 0 01-16.3 15.79A16 16 0 019.99 26.66a15.27 15.27 0 01.67-4.5H5.83v22.15a2.08 2.08 0 002.08 2.08h36.5a2.09 2.09 0 002.09-2.08V22.16z"/><path class="prefix__cls-3" d="M26.26 35.79a9.71 9.71 0 1110-9.7 9.88 9.88 0 01-10 9.7z"/><path d="M26.26 16.89a9.21 9.21 0 11-9.53 9.2 9.38 9.38 0 019.53-9.2m0-1a10.21 10.21 0 1010.53 10.2 10.37 10.37 0 00-10.53-10.2z"/></svg>