<svg id="prefix__Layer_1" data-name="Layer 1" xmlns="http://www.w3.org/2000/svg" viewBox="0 0 50.94 51.55"><defs><style>.prefix__cls-2{fill:#050505}</style></defs><path d="M60.34 65.35a5.15 5.15 0 01-5.14 5.16H14.53a5.15 5.15 0 01-5.14-5.16V24.12A5.15 5.15 0 0114.53 19H55.2a5.15 5.15 0 015.14 5.16z" transform="translate(-9.39 -18.96)" fill="#f73d0b"/><path class="prefix__cls-2" d="M19.39 59.25v-21h5.85v21zm2.88-24.76a2.86 2.86 0 01-3.06-2.92 2.91 2.91 0 013.15-2.93 2.89 2.89 0 013.11 2.94 2.94 2.94 0 01-3.2 2.91z" transform="translate(-9.39 -18.96)"/><path d="M22.36 29.14A2.39 2.39 0 0125 31.57 2.43 2.43 0 0122.27 34a2.43 2.43 0 11.09-4.85m2.38 9.56v20h-4.85v-20h4.85m-2.38-10.57a3.43 3.43 0 10-.09 6.86 3.43 3.43 0 10.09-6.85zm3.38 9.56h-6.85v22h6.85v-22z" transform="translate(-9.39 -18.96)"/><path class="prefix__cls-2" d="M44.41 59.25V47.53c0-4.6-2.49-5.28-4-5.28a4.25 4.25 0 00-4 2.88A5.2 5.2 0 0036.2 47v12.25h-5.86V44.73c0-2.46-.07-4.59-.16-6.53h5l.32 3.06h.86l.15-.23a7.37 7.37 0 016.38-3.33c4.7 0 7.39 3.29 7.39 9v12.55z" transform="translate(-9.39 -18.96)"/><path d="M42.87 38.2c4.38 0 6.89 3.11 6.89 8.52v12h-4.85V47.53c0-1.74-.44-5.78-4.47-5.78A4.73 4.73 0 0036 45a5.75 5.75 0 00-.3 2v11.75h-4.86v-14c0-2.25-.06-4.23-.13-6h4l.22 2.17.1.89h1.59l.29-.47a6.88 6.88 0 016-3.09m0-1a8 8 0 00-6.81 3.56h-.13l-.32-3.06h-5.99c.09 2 .18 4.28.18 7v15h6.86V47a4.93 4.93 0 01.22-1.71 3.78 3.78 0 013.52-2.57c2.48 0 3.47 1.94 3.47 4.78v12.25h6.85v-13c0-6.5-3.38-9.52-7.89-9.52z" transform="translate(-9.39 -18.96)"/></svg>