<svg id="Layer_1" data-name="Layer 1" xmlns="http://www.w3.org/2000/svg" viewBox="0 0 306.23 41.05"><defs><style>.cls-1{fill:#fff}</style></defs><path class="cls-1" d="M14 10.31l8.8 22.19 8.8-22.19h10.3L26.52 46.77H19L3.65 10.31zM42.72 12.43a4.76 4.76 0 0 1 .39-1.91A5 5 0 0 1 44.17 9a5 5 0 0 1 1.57-1.06 4.87 4.87 0 0 1 3.82 0A5 5 0 0 1 51.13 9a5.15 5.15 0 0 1 1.07 1.57 4.93 4.93 0 0 1 .38 1.91 4.86 4.86 0 0 1-.38 1.91 5.07 5.07 0 0 1-1.07 1.58A5 5 0 0 1 49.56 17a4.87 4.87 0 0 1-3.82 0 5 5 0 0 1-1.57-1.06 4.88 4.88 0 0 1-1.06-1.58 4.69 4.69 0 0 1-.39-1.93zM52.05 22v24.77H43.3V22zM72.07 28.34a10.31 10.31 0 0 0-4.74-1.25 3.6 3.6 0 0 0-2 .48 1.49 1.49 0 0 0-.75 1.31 1.73 1.73 0 0 0 .12.7 1.26 1.26 0 0 0 .54.5 4.2 4.2 0 0 0 1.21.44l2.1.48A10.07 10.07 0 0 1 74 33.59a6.56 6.56 0 0 1 1.79 4.76 8.65 8.65 0 0 1-.87 3.92 8.22 8.22 0 0 1-2.41 2.92A11.32 11.32 0 0 1 68.78 47a16.39 16.39 0 0 1-4.78.66 19.5 19.5 0 0 1-9.92-2.86l3.19-6.19a12.45 12.45 0 0 0 7 2.52 3.47 3.47 0 0 0 2-.53 1.61 1.61 0 0 0 .73-1.33 2.29 2.29 0 0 0-.12-.8 1.3 1.3 0 0 0-.51-.58 4.27 4.27 0 0 0-1.13-.48c-.5-.15-1.15-.3-2-.46q-4.07-.83-5.68-2.44A6 6 0 0 1 56 30a8.88 8.88 0 0 1 .77-3.75A7.78 7.78 0 0 1 59 23.46a10.42 10.42 0 0 1 3.5-1.79A15.54 15.54 0 0 1 67 21a20.64 20.64 0 0 1 8 1.6zM86.58 22v14q0 4.59 4.44 4.59T95.47 36V22h8.76v15.63c0 3.35-1.11 5.87-3.32 7.54s-5.5 2.52-9.89 2.52-7.68-.84-9.88-2.52-3.32-4.17-3.32-7.54V22zM126.9 22h8.8v24.77h-8.8V44a9.19 9.19 0 0 1-7.59 3.53 12.37 12.37 0 0 1-5-1 12 12 0 0 1-4-2.78 12.85 12.85 0 0 1-2.64-4.21 14.35 14.35 0 0 1-.94-5.27 13.8 13.8 0 0 1 .92-5.05 12.79 12.79 0 0 1 2.56-4.18 11.94 11.94 0 0 1 3.92-2.83 11.81 11.81 0 0 1 5-1 10.1 10.1 0 0 1 7.69 3.24zm-11 12.33a5.71 5.71 0 0 0 1.62 4.06 5.2 5.2 0 0 0 1.79 1.21 5.75 5.75 0 0 0 2.25.44 5.68 5.68 0 0 0 2.2-.44 5.3 5.3 0 0 0 1.79-1.21 6.18 6.18 0 0 0 1.2-1.79 5.12 5.12 0 0 0 .46-2.17 5.29 5.29 0 0 0-.46-2.2 6.19 6.19 0 0 0-1.2-1.82 5.42 5.42 0 0 0-1.79-1.2 5.68 5.68 0 0 0-2.2-.44 5.75 5.75 0 0 0-2.25.44 5.32 5.32 0 0 0-1.79 1.2 6.06 6.06 0 0 0-1.19 1.77 5.29 5.29 0 0 0-.45 2.11zM148 6.63v40.14h-8.76V6.63zM150.74 46.77l6.19-36.46h9.38l7.3 19.44 7.26-19.44h9.38l6.19 36.46H187l-3.15-21-8.6 21h-3.77l-8.18-21-3.14 21zM217 22h8.8v24.77H217V44a9.2 9.2 0 0 1-7.6 3.53 12.37 12.37 0 0 1-5-1 12.09 12.09 0 0 1-4-2.78 12.85 12.85 0 0 1-2.64-4.21 14.35 14.35 0 0 1-.94-5.27 14 14 0 0 1 .92-5.05 13 13 0 0 1 2.56-4.18 11.92 11.92 0 0 1 8.95-3.87 10.11 10.11 0 0 1 7.75 3.26zm-11 12.29a5.83 5.83 0 0 0 1.62 4.06 5.3 5.3 0 0 0 1.79 1.21 5.75 5.75 0 0 0 2.25.44 5.65 5.65 0 0 0 2.2-.44 5.3 5.3 0 0 0 1.79-1.21 6.21 6.21 0 0 0 1.21-1.79 5.28 5.28 0 0 0 .46-2.17 5.45 5.45 0 0 0-.46-2.2 6.22 6.22 0 0 0-1.21-1.82 5.42 5.42 0 0 0-1.79-1.2 5.65 5.65 0 0 0-2.2-.44 5.75 5.75 0 0 0-2.25.44 5.42 5.42 0 0 0-1.79 1.2 6 6 0 0 0-1.18 1.77 5.3 5.3 0 0 0-.44 2.15zM239.13 29.26v17.51h-8.75V29.26h-2.9V22h2.9v-7.49h8.75V22h5v7.3zM256.06 29.26v17.51h-8.76V29.26h-2.9V22h2.9v-7.49h8.76V22h5v7.3zM270.27 35.84q0 5.65 5.32 5.66a4.74 4.74 0 0 0 4.3-2.33h8.47q-2.57 8.52-12.82 8.52a16.79 16.79 0 0 1-5.75-.95 12.85 12.85 0 0 1-4.47-2.68 11.91 11.91 0 0 1-2.88-4.16 13.82 13.82 0 0 1-1-5.42 15.41 15.41 0 0 1 1-5.58 11.72 11.72 0 0 1 2.76-4.23 12.22 12.22 0 0 1 4.27-2.67 16.63 16.63 0 0 1 5.73-1 16.19 16.19 0 0 1 5.66.94 11.38 11.38 0 0 1 4.26 2.74 12 12 0 0 1 2.66 4.37 17.44 17.44 0 0 1 .92 5.83v.92zm10.25-5.08a5.24 5.24 0 0 0-1.79-3 5.56 5.56 0 0 0-6.6 0 4.86 4.86 0 0 0-1.62 3zM291.26 22H300v4a10.07 10.07 0 0 1 3.43-3.41 9.26 9.26 0 0 1 4.74-1.18h.75a4.78 4.78 0 0 1 .94.1v8.36a8.29 8.29 0 0 0-3.76-.87 5.66 5.66 0 0 0-4.57 1.81 8.09 8.09 0 0 0-1.52 5.3v10.66h-8.75z" transform="translate(-3.65 -6.63)"/></svg>