<svg data-name="Layer 1" xmlns="http://www.w3.org/2000/svg" viewBox="0 0 53.7 53.7"><rect width="53.7" height="53.7" rx="10.74" fill="#f73d0b"/><path d="M22.44 45.98a3.11 3.11 0 01-1.23-.22c-1.21-.51-2.22-1.7-3.1-3.64a31.86 31.86 0 01-2.43-7.35l-.21-.86c-.6-2.39-1.14-4.56-1.85-6.58-.16-.46-.3-.93-.44-1.4a18.71 18.71 0 00-.72-2.15 2.33 2.33 0 00-2.08-1.34 5.79 5.79 0 00-1.67.35 5.87 5.87 0 01-1.66.35h-.33c-.32-.05-.48-.27-.75-.71-.1-.15-.21-.32-.33-.48h.05l-.19-.42-.34-.5c.92-.75 1.82-1.55 2.69-2.33a38.83 38.83 0 016-4.66 6.79 6.79 0 013.09-1.06 3 3 0 01.88.12c1 .3 1.93 1.64 2.42 2.8a8.49 8.49 0 01.74 1.65 34.64 34.64 0 011 4.9l.13.76c.12.73.21 1.56.3 2.43a21.81 21.81 0 001.19 6 6 6 0 00.8 1.1 3 3 0 002.15 1.11c1.91 0 3.23-2.45 4.1-4.07l.07-.13a14.29 14.29 0 001.96-5.12 6.66 6.66 0 00-.14-2.36v-.1l-.13-.09c-.66-.78-1.7-1.14-3.37-1.14h-.61c0-.09.41-1 .41-1h-.9a13.14 13.14 0 018.74-7.72 11.24 11.24 0 011.79-.14c1.39 0 3.26.26 4.25 1.5a3.71 3.71 0 01.55 1v.13a5.3 5.3 0 01.5 4.06c-.41 2.14-3.26 10.38-8.82 17.92a30.48 30.48 0 01-8.59 8.16 8.69 8.69 0 01-3.92 1.23z" fill="#050505"/><path d="M38.47 12.48c1.05 0 3 .17 3.85 1.31a2.76 2.76 0 01.47.88v.13l.08.11a4.87 4.87 0 01.42 3.68c-.39 2-3.29 10.35-8.72 17.71a29.85 29.85 0 01-8.46 8 8.09 8.09 0 01-3.72 1.15 2.64 2.64 0 01-1-.18c-1.09-.46-2-1.57-2.85-3.39a31.39 31.39 0 01-2.39-7.2l-.22-.86v-.08c-.58-2.32-1.12-4.51-1.84-6.54-.16-.45-.29-.9-.43-1.38a19.62 19.62 0 00-.74-2.2v-.12a2.79 2.79 0 00-2.57-1.52 6.2 6.2 0 00-1.82.37 5.28 5.28 0 01-1.51.33h-.26c-.09 0-.18-.14-.4-.49l-.08-.21.08-.07-.48-.77-.08-.12c.81-.66 1.59-1.36 2.35-2a37.69 37.69 0 015.92-4.61 6.1 6.1 0 012.87-.88 2.45 2.45 0 01.74.1 4.28 4.28 0 012.1 2.51v.12a7.87 7.87 0 01.66 1.49 33.39 33.39 0 011 4.83l.12.76c.13.72.21 1.54.3 2.4a21.89 21.89 0 001.23 6.16v.13a7.08 7.08 0 00.83 1.12 3.47 3.47 0 002.52 1.27c2.21 0 3.61-2.61 4.54-4.33l.07-.13a14.91 14.91 0 002-5.38 7.17 7.17 0 00-.15-2.53l-.06-.21-.14-.17a4.54 4.54 0 00-3.61-1.31l.42-1h-.88a12.86 12.86 0 018-6.76 11.64 11.64 0 011.75-.13m0-1a12.56 12.56 0 00-1.9.14 13.72 13.72 0 00-9.35 8.82l.86-.05c-.14.33-.27.66-.38 1 .48 0 .93-.06 1.34-.06a3.67 3.67 0 013 1 6.14 6.14 0 01.12 2.18 14.06 14.06 0 01-1.83 5c-.78 1.44-2.07 3.93-3.73 3.93a2.51 2.51 0 01-1.79-1 5 5 0 01-.7-.94c-.99-2.51-.98-5.89-1.34-8.32a42.85 42.85 0 00-1.17-5.73 8.79 8.79 0 00-.76-1.7c-.57-1.35-1.56-2.74-2.74-3.08a3.44 3.44 0 00-1-.14 7.09 7.09 0 00-3.38 1c-3.44 2-6.06 4.9-9 7.27v.22a3.91 3.91 0 01.53.7v.27c.59.56.75 1.49 1.62 1.62a2.69 2.69 0 00.4 0c1.19 0 2.33-.7 3.33-.7a1.81 1.81 0 011.62 1c.48 1.14.73 2.33 1.15 3.52.71 2 1.25 4.21 1.83 6.53.63 2.53 1.36 5.86 2.7 8.3a7.17 7.17 0 003.37 3.9 3.49 3.49 0 001.42.26 9.14 9.14 0 004.08-1.21 31.36 31.36 0 008.74-8.3c5.45-7.38 8.46-15.74 8.91-18.12a5.88 5.88 0 00-.58-4.44 4 4 0 00-.63-1.17c-1-1.3-2.9-1.69-4.64-1.69z"/></svg>